# xmcd
#
# Track frame offsets: 
#        150
#        13872
#        27131
#        38405
#        48371
#        63526
#        72429
#        90031
#        99924
#        110172
#        116885
#        128780
#        140735
#        155736
#        167590
#        177488
#
# Disc length: 2602 seconds
#
# Revision: 0
# Processed by: cddbd v1.5.2PL0 Copyright (c) Steve Scherf et al.
# Submitted via: ExactAudioCopy v0.99pb3
#
DISCID=d90a2810
DTITLE=Sleepy Township - Set Sail
DYEAR=1998
DGENRE=Chapter
TTITLE0=Heed The Call
TTITLE1=All These Records
TTITLE2=Thanks
TTITLE3=Just A Sec.
TTITLE4=For You
TTITLE5=Little Song
TTITLE6=Pillow
TTITLE7=Westgate Bridge
TTITLE8=Unperturbed
TTITLE9=Another Episode
TTITLE10=Lone Ranger
TTITLE11=Weak
TTITLE12=Last Time Early
TTITLE13=U.F.O.
TTITLE14=Earth Wire
TTITLE15=Merry Xmas
EXTD=
EXTT0=
EXTT1=
EXTT2=
EXTT3=
EXTT4=
EXTT5=
EXTT6=
EXTT7=
EXTT8=
EXTT9=
EXTT10=
EXTT11=
EXTT12=
EXTT13=
EXTT14=
EXTT15=
PLAYORDER=
